<svg xmlns="http://www.w3.org/2000/svg">
  <symbol id="triggers" viewBox="0 0 24 24">
    <path
      d="M18,4 C19.11,4 20,4.89 20,6 L20,16 C20,17.11 19.11,18 18,18 L2,18 C0.89,18 0,17.11 0,16 L0,4 C0,2.89 0.89,2 2,2 L8,2 L10,4 L18,4 Z M18,16 L18,6 L9.17,6 L7.17,4 L2,4 L2,16 L18,16 Z M7,15.5 L7,6.5 L13,11 L7,15.5 Z"
    ></path>
  </symbol>
  <symbol id="suspends" viewBox="0 0 24 24">
    <path
      d="M13,17.418483 L13,19.5421977 C12.0529588,19.8396462 11.0452057,20 10,20 C4.47,20 0,15.5 0,10 C-8.8817842e-16,4.4771525 4.4771525,1.33226763e-15 10,0 C12.6521649,2.22044605e-16 15.195704,1.0535684 17.0710678,2.92893219 C18.9464316,4.80429597 20,7.3478351 20,10 C20,10.6849317 19.9311395,11.3537801 19.7999638,12 L17.747965,12 C17.912494,11.3607602 18,10.6905991 18,10 C18,5.581722 14.418278,2 10,2 C5.581722,2 2,5.581722 2,10 C2,14.418278 5.581722,18 10,18 C11.0609004,18 12.0735686,17.7934929 13,17.418483 Z M13.4494382,12 L13,12 L14,13 L13.375,13.625 L9,11 L9,5 L10.5,5 L10.5,10.25 L13.4494382,12 Z M15,14 L17,14 L17,20 L15,20 L15,14 Z M18,14 L20,14 L20,20 L18,20 L18,14 Z"
    ></path>
  </symbol>
  <symbol id="schedules" viewBox="0 0 24 24">
    <path
      d="M17,18 L17,6 L3,6 L3,18 L17,18 Z M14,0 L16,0 L16,2 L17,2 C18.1045695,2 19,2.8954305 19,4 L19,18 C19,19.1045695 18.1045695,20 17,20 L3,20 C1.89,20 1,19.1 1,18 L1,4 C1,2.89 1.89,2 3,2 L4,2 L4,0 L6,0 L6,2 L14,2 L14,0 Z M9,8 L11,8 L11,11 L14,11 L14,13 L11,13 L11,16 L9,16 L9,13 L6,13 L6,11 L9,11 L9,8 Z"
    ></path>
  </symbol>
  <symbol id="resumes" viewBox="0 0 24 24">
    <path
      d="M17.747965,12 C17.912494,11.3607602 18,10.6905991 18,10 C18,5.581722 14.418278,2 10,2 C5.581722,2 2,5.581722 2,10 C2,14.418278 5.581722,18 10,18 L10,20 C4.47,20 0,15.5 0,10 C-8.8817842e-16,4.4771525 4.4771525,1.33226763e-15 10,0 C12.6521649,2.22044605e-16 15.195704,1.0535684 17.0710678,2.92893219 C18.9464316,4.80429597 20,7.3478351 20,10 C20,10.9723859 19.8612116,11.912356 19.6023635,12.8011817 L18,12 L17.747965,12 Z M13.4494382,12 L10.6666667,12 L9,11 L9,5 L10.5,5 L10.5,10.25 L13.4494382,12 Z M15,20 L15,12.5 L20,16.25 L15,20 Z M12,13 L14,13 L14,20 L12,20 L12,13 Z"
    ></path>
  </symbol>
  <symbol id="removes" viewBox="0 0 24 24">
    <path
      d="M7,1 L7,2 L2,2 L2,4 L3,4 L3,17 C3,18.1045695 3.8954305,19 5,19 L15,19 C16.1045695,19 17,18.1045695 17,17 L17,4 L18,4 L18,2 L13,2 L13,1 L7,1 Z M5,4 L15,4 L15,17 L5,17 L5,4 Z M7,6 L7,15 L9,15 L9,6 L7,6 Z M11,6 L11,15 L13,15 L13,6 L11,6 Z"
    ></path>
  </symbol>
  <symbol id="performs-compound-process" viewBox="0 0 24 24">
    <path
      d="M18,4 C19.11,4 20,4.89 20,6 L20,16 C20,17.11 19.11,18 18,18 L2,18 C0.89,18 0,17.11 0,16 L0,4 C0,2.89 0.89,2 2,2 L8,2 L10,4 L18,4 Z M18,16 L18,6 L9.17,6 L7.17,4 L2,4 L2,16 L18,16 Z M7,15.5 L7,6.5 L13,11 L7,15.5 Z"
    ></path>
  </symbol>
  <symbol id="performs-compound-process-element" viewBox="0 0 24 24">
    <path
      d="M10,18 C5.59,18 2,14.41 2,10 C2,5.59 5.59,2 10,2 C14.41,2 18,5.59 18,10 C18,14.41 14.41,18 10,18 Z M10,4.4408921e-16 C4.4771525,-1.77635684e-15 4.4408921e-16,4.4771525 0,10 C-1.33226763e-15,12.6521649 1.0535684,15.195704 2.92893219,17.0710678 C4.80429597,18.9464316 7.3478351,20 10,20 C12.6521649,20 15.195704,18.9464316 17.0710678,17.0710678 C18.9464316,15.195704 20,12.6521649 20,10 C20,7.3478351 18.9464316,4.80429597 17.0710678,2.92893219 C15.195704,1.0535684 12.6521649,2.22044605e-16 10,0 Z M8,14.5 L14,10 L8,5.5 L8,14.5 Z"
    ></path>
  </symbol>
  <symbol id="expires" viewBox="0 0 24 24">
    <path
      d="M12,17.747965 L12,19.7999638 C11.3537801,19.9311395 10.6849317,20 10,20 C4.47,20 0,15.5 0,10 C-8.8817842e-16,4.4771525 4.4771525,1.33226763e-15 10,0 C12.6521649,2.22044605e-16 15.195704,1.0535684 17.0710678,2.92893219 C18.9464316,4.80429597 20,7.3478351 20,10 C20,10.6849317 19.9311395,11.3537801 19.7999638,12 L17.747965,12 C17.912494,11.3607602 18,10.6905991 18,10 C18,5.581722 14.418278,2 10,2 C5.581722,2 2,5.581722 2,10 C2,14.418278 5.581722,18 10,18 C10.6905991,18 11.3607602,17.912494 12,17.747965 Z M13.4494382,12 L13,12 L13,13 L12.3333333,13 L12,12.8 L12,12 L12,12.8 L9,11 L9,5 L10.5,5 L10.5,10.25 L13.4494382,12 Z M14,14 L20,14 L20,20 L14,20 L14,14 Z"
    ></path>
  </symbol>
  <symbol id="decides" viewBox="0 0 24 24">
    <path
      d="M10,0 C8.73,0 7.6,0.8 7.18,2 L1,2 L1,4 L2.95,4 L-3.1655234e-14,11 C-0.47,13 1,14 3.5,14 C6,14 7.56,13 7,11 L4.05,4 L7.17,4 C7.5,4.85 8.15,5.5 9,5.83 L9,17 L-3.1655234e-14,17 L-3.1655234e-14,19 L20,19 L20,17 L11,17 L11,5.82 C11.85,5.5 12.5,4.85 12.82,4 L15.95,4 L13,11 C12.53,13 14,14 16.5,14 C19,14 20.56,13 20,11 L17.05,4 L19,4 L19,2 L12.83,2 C12.4,0.8 11.27,0 10,0 Z M10,2 C10.5522847,2 11,2.44771525 11,3 C11,3.55228475 10.5522847,4 10,4 C9.44771525,4 9,3.55228475 9,3 C9,2.44771525 9.44771525,2 10,2 Z M3.5,7.25 L5,11 L2,11 L3.5,7.25 Z M16.5,7.25 L18,11 L15,11 L16.5,7.25 Z"
    ></path>
  </symbol>
  <symbol id="creates-note" viewBox="0 0 24 24">
    <path
      d="M7,20 C6.44771525,20 6,19.5522847 6,19 L6,16 L2,16 C0.8954305,16 0,15.1045695 0,14 L0,2 C0,0.89 0.9,0 2,0 L18,0 C19.1045695,0 20,0.8954305 20,2 L20,14 C20,15.1045695 19.1045695,16 18,16 L11.9,16 L8.2,19.71 C8,19.9 7.75,20 7.5,20 L7,20 Z M8,14 L8,17.08 L11.08,14 L18,14 L18,2 L2,2 L2,14 L8,14 Z M9,4 L11,4 L11,7 L14,7 L14,9 L11,9 L11,12 L9,12 L9,9 L6,9 L6,7 L9,7 L9,4 Z"
    ></path>
  </symbol>
  <symbol id="creates-compound-process" viewBox="0 0 24 24">
    <path
      d="M15,11 L17,11 L17,14 L20,14 L20,16 L17,16 L17,19 L15,19 L15,16 L12,16 L12,14 L15,14 L15,11 Z M2,0 L16,0 C17.1045695,0 18,0.8954305 18,2 L18,9.08 C16.45,8.82 14.92,9.18 13.68,10 L10,10 L10,14 L11.08,14 C10.97,14.68 10.97,15.35 11.08,16 L2,16 C0.8954305,16 0,15.1045695 0,14 L0,2 C-2.22044605e-16,0.8954305 0.8954305,0 2,0 Z M2,4 L2,8 L8,8 L8,4 L2,4 Z M10,4 L10,8 L16,8 L16,4 L10,4 Z M2,10 L2,14 L8,14 L8,10 L2,10 Z"
    ></path>
  </symbol>
  <symbol id="creates-case-object" viewBox="0 0 24 24">
    <path
      d="M18,4 L10,4 L8,2 L2,2 C0.89,2 0,2.89 0,4 L0,16 C0,17.11 0.89,18 2,18 L18,18 C19.11,18 20,17.11 20,16 L20,6 C20,4.89 19.11,4 18,4 Z M18,16 L2,16 L2,4 L7.17,4 L9.17,6 L18,6 L18,16 Z M10,12 L12,12 L12,14 L14,14 L14,12 L16,12 L16,10 L14,10 L14,8 L12,8 L12,10 L10,10 L10,12 Z"
    ></path>
  </symbol>
  <symbol id="creates" viewBox="0 0 24 24">
    <path
      d="M10,18 C5.59,18 2,14.41 2,10 C2,5.59 5.59,2 10,2 C14.41,2 18,5.59 18,10 C18,14.41 14.41,18 10,18 Z M10,4.4408921e-16 C4.4771525,-1.77635684e-15 4.4408921e-16,4.4771525 0,10 C-1.33226763e-15,12.6521649 1.0535684,15.195704 2.92893219,17.0710678 C4.80429597,18.9464316 7.3478351,20 10,20 C12.6521649,20 15.195704,18.9464316 17.0710678,17.0710678 C18.9464316,15.195704 20,12.6521649 20,10 C20,7.3478351 18.9464316,4.80429597 17.0710678,2.92893219 C15.195704,1.0535684 12.6521649,2.22044605e-16 10,0 Z M11,5 L9,5 L9,9 L5,9 L5,11 L9,11 L9,15 L11,15 L11,11 L15,11 L15,9 L11,9 L11,5 Z"
    ></path>
  </symbol>
  <symbol id="classifies" viewBox="0 0 24 24">
    <path
      d="M6.39241339,13 C4.35958217,11.7751029 3,9.54632514 3,7 C3,3.13400675 6.13400675,1.11022302e-14 10,1.11022302e-14 C13.8659932,1.11022302e-14 17,3.13400675 17,7 C17,9.54632514 15.6404178,11.7751029 13.6075866,13 L14,13 L15,19 L10,16 L5,19 L6,13 L6.39241339,13 Z M10,12 C12.7614237,12 15,9.76142375 15,7 C15,4.23857625 12.7614237,2 10,2 C7.23857625,2 5,4.23857625 5,7 C5,9.76142375 7.23857625,12 10,12 Z M10,11 C7.790861,11 6,9.209139 6,7 C6,4.790861 7.790861,3 10,3 C12.209139,3 14,4.790861 14,7 C14,9.209139 12.209139,11 10,11 Z"
    ></path>
  </symbol>
  <symbol id="changes" viewBox="0 0 24 24">
    <path
      d="M18.71,5.04 C19.1,4.65 19.1,4 18.71,3.63 L16.37,1.29 C16,0.9 15.35,0.9 14.96,1.29 L13.12,3.12 L16.87,6.87 L18.71,5.04 Z M1,15.25 L1,19 L4.75,19 L15.81,7.93 L12.06,4.18 L1,15.25 Z"
    ></path>
  </symbol>
  <symbol id="calculates" viewBox="0 0 24 24">
    <path
      d="M5,0 L15,0 C16.1045695,0 17,0.8954305 17,2 L17,18 C17,19.1045695 16.1045695,20 15,20 L5,20 C3.8954305,20 3,19.1045695 3,18 L3,2 C3,0.8954305 3.8954305,0 5,0 Z M5,2 L5,6 L15,6 L15,2 L5,2 Z M5,8 L5,10 L7,10 L7,8 L5,8 Z M9,8 L9,10 L11,10 L11,8 L9,8 Z M13,8 L13,10 L15,10 L15,8 L13,8 Z M5,12 L5,14 L7,14 L7,12 L5,12 Z M9,12 L9,14 L11,14 L11,12 L9,12 Z M13,12 L13,14 L15,14 L15,12 L13,12 Z M5,16 L5,18 L7,18 L7,16 L5,16 Z M9,16 L9,18 L11,18 L11,16 L9,16 Z M13,16 L13,18 L15,18 L15,16 L13,16 Z"
    ></path>
  </symbol>
  <symbol id="begins" viewBox="0 0 24 24">
    <path
      d="M13,17.418483 L13,19.5421977 C12.0529588,19.8396462 11.0452057,20 10,20 C4.47,20 0,15.5 0,10 C-8.8817842e-16,4.4771525 4.4771525,1.33226763e-15 10,0 C12.6521649,2.22044605e-16 15.195704,1.0535684 17.0710678,2.92893219 C18.9464316,4.80429597 20,7.3478351 20,10 C20,10.9466416 19.8684633,11.8625612 19.62267,12.7304786 L18.6,12 L17.747965,12 C17.912494,11.3607602 18,10.6905991 18,10 C18,5.581722 14.418278,2 10,2 C5.581722,2 2,5.581722 2,10 C2,14.418278 5.581722,18 10,18 C11.0609004,18 12.0735686,17.7934929 13,17.418483 Z M13.4494382,12 L13,12 L13,13.4 L9,11 L9,5 L10.5,5 L10.5,10.25 L13.4494382,12 Z M15,20 L15,12.5 L20,16.25 L15,20 Z"
    ></path>
  </symbol>
  <symbol id="associates-object" viewBox="0 0 24 24">
    <path
      d="M7.5,1 C11.0898509,1 14,3.91014913 14,7.5 C14,9.11 13.41,10.59 12.44,11.73 L12.71,12 L13.5,12 L18.5,17 L17,18.5 L12,13.5 L12,12.71 L11.73,12.44 C10.59,13.41 9.11,14 7.5,14 C3.91014913,14 1,11.0898509 1,7.5 C1,3.91014913 3.91014913,1 7.5,1 Z M7.5,3 C5,3 3,5 3,7.5 C3,10 5,12 7.5,12 C10,12 12,10 12,7.5 C12,5 10,3 7.5,3 Z"
    ></path>
  </symbol>
  <symbol id="associates-compound-process" viewBox="0 0 24 24">
    <path
      d="M18,4 L10,4 L8,2 L2,2 C0.89,2 0,2.89 0,4 L0,16 C0,17.11 0.89,18 2,18 L18,18 C19.11,18 20,17.11 20,16 L20,6 C20,4.89 19.11,4 18,4 Z M9,16 L2,16 L2,4 L7.17,4 L9.17,6 L18,6 L18,12 L20,12 L20,18 L11,18 L10,17 L9,17 L9,16 Z M17,11.5 C17,12.38 16.75,13.21 16.31,13.9 L19.39,17 L18,18.39 L14.88,15.32 C14.19,15.75 13.37,16 12.5,16 C10,16 8,14 8,11.5 C8,9 10,7 12.5,7 C15,7 17,9 17,11.5 Z M10,11.5 C10,12.8807119 11.1192881,14 12.5,14 C13.8807119,14 15,12.8807119 15,11.5 C15,10.1192881 13.8807119,9 12.5,9 C11.1192881,9 10,10.1192881 10,11.5 Z"
    ></path>
  </symbol>
  <symbol id="lookup" viewBox="0 0 24 24">
    <path
      d="M7.5,1 C11.0898509,1 14,3.91014913 14,7.5 C14,9.11 13.41,10.59 12.44,11.73 L12.71,12 L13.5,12 L18.5,17 L17,18.5 L12,13.5 L12,12.71 L11.73,12.44 C10.59,13.41 9.11,14 7.5,14 C3.91014913,14 1,11.0898509 1,7.5 C1,3.91014913 3.91014913,1 7.5,1 Z M7.5,3 C5,3 3,5 3,7.5 C3,10 5,12 7.5,12 C10,12 12,10 12,7.5 C12,5 10,3 7.5,3 Z"
    ></path>
  </symbol>
  <symbol id="assigns" viewBox="0 0 24 24">
    <path
      d="M12,12 C9.33,12 4,13.33 4,16 L4,18 L20,18 L20,16 C20,13.33 14.67,12 12,12 Z M5,8 L5,5 L3,5 L3,8 L0,8 L0,10 L3,10 L3,13 L5,13 L5,10 L8,10 L8,8 L5,8 Z M12,10 C14.209139,10 16,8.209139 16,6 C16,3.790861 14.209139,2 12,2 C9.790861,2 8,3.790861 8,6 C8,8.209139 9.790861,10 12,10 Z"
    ></path>
  </symbol>
  <symbol id="adds" viewBox="0 0 24 24">
    <path
      d="M12,0 L4,0 C2.8954305,0 2,0.8954305 2,2 L2,18 C2,19.1045695 2.8954305,20 4,20 L16,20 C17.1045695,20 18,19.1045695 18,18 L18,6 L12,0 Z M16,18 L4,18 L4,2 L11,2 L11,7 L16,7 L16,18 Z"
    ></path>
    <polygon id="Path-Copy" points="10 12 10 9 8 9 8 12 5 12 5 14 8 14 8 17 10 17 10 14 13 14 13 12"></polygon>
  </symbol>
  <symbol id="lock" viewBox="0 0 24 24">
    <path
      d="M10,16 C11.1045695,16 12,15.1045695 12,14 C12,12.89 11.1,12 10,12 C8.8954305,12 8,12.8954305 8,14 C8,15.1045695 8.8954305,16 10,16 Z M18,9 L18,18 C18,19.1045695 17.1045695,20 16,20 L4,20 C2.8954305,20 2,19.1045695 2,18 L2,9 C2,7.89 2.9,7 4,7 L5,7 L5,5 C5,2.23857625 7.23857625,6.66133815e-16 10,0 C11.3260824,1.11022302e-16 12.597852,0.526784202 13.5355339,1.46446609 C14.4732158,2.40214799 15,3.67391755 15,5 L15,7 L16,7 C17.1045695,7 18,7.8954305 18,9 Z M10,2 C8.34314575,2 7,3.34314575 7,5 L7,7 L13,7 L13,5 C13,3.34314575 11.6568542,2 10,2 Z"
    ></path>
  </symbol>
  <symbol id="pause" viewBox="0 0 24 24">
    <path
      d="M13,14 L11,14 L11,6 L13,6 L13,14 Z M9,14 L7,14 L7,6 L9,6 L9,14 Z M10,4.4408921e-16 C4.4771525,-1.77635684e-15 4.4408921e-16,4.4771525 0,10 C-1.33226763e-15,12.6521649 1.0535684,15.195704 2.92893219,17.0710678 C4.80429597,18.9464316 7.3478351,20 10,20 C12.6521649,20 15.195704,18.9464316 17.0710678,17.0710678 C18.9464316,15.195704 20,12.6521649 20,10 C20,7.3478351 18.9464316,4.80429597 17.0710678,2.92893219 C15.195704,1.0535684 12.6521649,2.22044605e-16 10,4.4408921e-16 Z"
    ></path>
  </symbol>
  <symbol id="check" viewBox="0 0 24 24">
    <path
      d="M7.4343125,15.700125 L2.2343125,10.500125 C1.92190625,10.1877187 1.92190625,9.6811875 2.2343125,9.36875 L3.36565625,8.237375 C3.6780625,7.9249375 4.184625,7.9249375 4.49703125,8.237375 L8,11.7403125 L15.5029687,4.237375 C15.815375,3.92496875 16.3219375,3.92496875 16.6343437,4.237375 L17.7656875,5.36875 C18.0780937,5.68115625 18.0780937,6.1876875 17.7656875,6.500125 L8.5656875,15.7001562 C8.25325,16.0125625 7.74671875,16.0125625 7.4343125,15.700125 Z"
    ></path>
  </symbol>
</svg>